<?xml version="1.0" encoding="UTF-8"?>
<svg width="1200pt" height="1200pt" version="1.1" viewBox="0 0 1200 1200" xmlns="http://www.w3.org/2000/svg">
 <path d="m781.38 275.04c-54.168 0-98.242 44.074-98.242 98.242 0 13.543 2.8164 26.508 7.793 38.258l-203.34 118.55c-17.75-17.516-42.113-28.34-68.957-28.34-54.168 0-98.242 44.074-98.242 98.242 0 54.168 44.074 98.242 98.242 98.242 26.848 0 51.207-10.824 68.957-28.34l203.34 118.55c-4.9766 11.75-7.793 24.715-7.793 38.258 0 54.168 44.074 98.242 98.242 98.242s98.242-44.074 98.242-98.242-44.074-98.242-98.242-98.242c-35.148 0-66 18.691-83.363 46.523l-200.5-116.66c12.148-16.348 19.363-36.445 19.363-58.332 0-21.887-7.2148-41.98-19.363-58.332l200.5-116.66c17.363 27.832 48.215 46.523 83.363 46.523 54.168 0 98.242-44.074 98.242-98.242 0-54.168-44.074-98.242-98.242-98.242zm0 15.113c46 0 83.129 37.129 83.129 83.129s-37.129 83.129-83.129 83.129-83.129-37.129-83.129-83.129 37.129-83.129 83.129-83.129zm-362.74 226.71c46 0 83.129 37.129 83.129 83.129s-37.129 83.129-83.129 83.129-83.129-37.129-83.129-83.129 37.129-83.129 83.129-83.129zm362.74 226.71c46 0 83.129 37.129 83.129 83.129s-37.129 83.129-83.129 83.129-83.129-37.129-83.129-83.129 37.129-83.129 83.129-83.129z" fill="#2a2828"/>
</svg>
